HIERARCHY
ROOT Hips
{
	OFFSET 0.000000 0.000000 0.000000
	CHANNELS 6 Xposition Yposition Zposition Zrotation Yrotation Xrotation 
	JOINT LowerBack
	{
		OFFSET 0.000000 0.000000 0.000000
		CHANNELS 3 Zrotation Yrotation Xrotation
		JOINT Spine
		{
			OFFSET 0.028270 2.035590 -0.193380
			CHANNELS 3 Zrotation Yrotation Xrotation
			JOINT Spine1
			{
				OFFSET 0.056720 2.048850 -0.042750
				CHANNELS 3 Zrotation Yrotation Xrotation
				JOINT Neck
				{
					OFFSET 0.000000 0.000000 0.000000
					CHANNELS 3 Zrotation Yrotation Xrotation
					JOINT Neck1
					{
						OFFSET -0.054170 1.746240 0.172020
						CHANNELS 3 Zrotation Yrotation Xrotation
						JOINT Head
						{
							OFFSET 0.104070 1.761360 -0.123970
							CHANNELS 3 Zrotation Yrotation Xrotation
							End Site
							{
								OFFSET 0.000000 0.000000 0.000000
							}
						}
					}
				}
				JOINT LeftShoulder
				{
					OFFSET 0.000000 0.000000 0.000000
					CHANNELS 3 Zrotation Yrotation Xrotation
					JOINT LeftArm
					{
						OFFSET 3.362410 1.200890 -0.311210
						CHANNELS 3 Zrotation Yrotation Xrotation
						JOINT LeftForeArm
						{
							OFFSET 4.983000 -0.000000 -0.000000
							CHANNELS 3 Zrotation Yrotation Xrotation
							JOINT LeftHand
							{
								OFFSET 3.483560 -0.000000 -0.000000
								CHANNELS 3 Zrotation Yrotation Xrotation
								JOINT LeftFingerBase
								{
									OFFSET 0.000000 0.000000 0.000000
									CHANNELS 3 Zrotation Yrotation Xrotation
									JOINT LeftHandIndex1
									{
										OFFSET 0.715260 -0.000000 -0.000000
										CHANNELS 3 Zrotation Yrotation Xrotation
										End Site
										{
											OFFSET 0.000000 0.000000 0.000000
										}
									}
								}
								JOINT LThumb
								{
									OFFSET 0.000000 0.000000 0.000000
									CHANNELS 3 Zrotation Yrotation Xrotation
									End Site
									{
										OFFSET 0.000000 0.000000 0.000000
									}
								}
							}
						}
					}
				}
				JOINT RightShoulder
				{
					OFFSET 0.000000 0.000000 0.000000
					CHANNELS 3 Zrotation Yrotation Xrotation
					JOINT RightArm
					{
						OFFSET -3.136600 1.374050 -0.404650
						CHANNELS 3 Zrotation Yrotation Xrotation
						JOINT RightForeArm
						{
							OFFSET -5.241900 -0.000000 -0.000000
							CHANNELS 3 Zrotation Yrotation Xrotation
							JOINT RightHand
							{
								OFFSET -3.444170 -0.000000 -0.000000
								CHANNELS 3 Zrotation Yrotation Xrotation
								JOINT RightFingerBase
								{
									OFFSET 0.000000 0.000000 0.000000
									CHANNELS 3 Zrotation Yrotation Xrotation
									JOINT RightHandIndex1
									{
										OFFSET -0.622530 -0.000000 -0.000000
										CHANNELS 3 Zrotation Yrotation Xrotation
										End Site
										{
											OFFSET 0.000000 0.000000 0.000000
										}
									}
								}
								JOINT RThumb
								{
									OFFSET 0.000000 0.000000 0.000000
									CHANNELS 3 Zrotation Yrotation Xrotation
									End Site
									{
										OFFSET 0.000000 0.000000 0.000000
									}
								}
							}
						}
					}
				}
			}
		}
	}
}
}
MOTION
Frames: 15
Frame Time: 0.008333
-0.793862 17.300501 0.921197 5.794256 -84.887806 3.862252 -1.459560 -2.179921 -4.444704 -1.023570 -2.268608 -3.780560 -6.727067 -2.384270 0.193175 10.999911 -9.233192 -6.921413 -3.540831 -0.290037 0.244381 0.000000 0.000000 0.000000 -1.578290 2.294408 1.309796 -71.951291 1.490205 12.974770 -3.231167 -20.355589 0.003468 2.622016 -2.431093 -0.057051 -0.074565 0.012883 -0.000000 0.000000 0.000000 0.000000 0.000000 0.000000 0.000000 16.638102 -6.720411 0.894981 68.444272 -1.924412 4.264355 3.494194 24.860595 0.024419 -0.162213 13.612399 -0.030093 0.098077 -0.084855 0.000000 0.000000 0.000000 0.000000 0.000000 0.000000 0.000000 
-0.758259 17.296168 0.954319 3.669086 -84.620659 5.824018 -1.265443 -2.233606 -4.081592 -0.988366 -2.326144 -3.720141 -6.742898 -2.437482 0.166808 11.032248 -9.204637 -6.952745 -3.546108 -0.289390 0.231943 0.000000 0.000000 0.000000 -1.603591 2.188475 1.341289 -71.989873 1.099313 13.282826 -3.217111 -20.447930 0.003331 2.670746 -2.418636 -0.057844 -0.074732 0.015741 -0.000000 0.000000 0.000000 0.000000 0.000000 0.000000 0.000000 16.689318 -6.741622 0.941300 68.308351 -2.176948 3.997962 3.517129 24.555802 0.024002 -0.117890 13.345983 -0.024318 0.098090 -0.082562 0.000000 0.000000 0.000000 0.000000 0.000000 0.000000 0.000000 
-0.719422 17.292093 0.985918 1.397422 -84.389365 7.889383 -1.031058 -2.293049 -3.656927 -0.946610 -2.390407 -3.649956 -6.765641 -2.497059 0.132922 11.061028 -9.147259 -6.986877 -3.555551 -0.288884 0.217784 0.000000 0.000000 0.000000 -1.651801 2.090258 1.381067 -71.983627 0.714967 13.609658 -3.201278 -20.625406 0.003200 2.725506 -2.422714 -0.059236 -0.074870 0.018765 -0.000000 0.000000 0.000000 0.000000 0.000000 0.000000 0.000000 16.749911 -6.733993 0.993080 68.202253 -2.373451 3.669405 3.540157 24.179751 0.023528 -0.098947 13.068997 -0.021643 0.098116 -0.080542 0.000000 0.000000 0.000000 0.000000 0.000000 0.000000 0.000000 
-0.677724 17.288659 1.015978 -1.072831 -84.189575 10.109691 -0.755169 -2.357142 -3.173277 -0.898484 -2.460142 -3.571906 -6.796466 -2.561954 0.086147 11.085311 -9.044955 -7.014254 -3.570571 -0.288747 0.204518 0.000000 0.000000 0.000000 -1.721842 1.981053 1.430353 -71.931738 0.355722 13.947092 -3.183380 -20.882973 0.003083 2.790844 -2.449978 -0.061326 -0.074930 0.021903 -0.000000 0.000000 0.000000 0.000000 0.000000 0.000000 0.000000 16.819213 -6.681537 1.050386 68.130215 -2.538981 3.255690 3.563283 23.742111 0.023030 -0.099872 12.805798 -0.021270 0.098078 -0.078842 0.000000 0.000000 0.000000 0.000000 0.000000 0.000000 0.000000 
-0.633245 17.286163 1.044810 -3.848320 -84.015214 12.583787 -0.428250 -2.423223 -2.628006 -0.842550 -2.532831 -3.486820 -6.834861 -2.629726 0.021632 11.101065 -8.895072 -7.026614 -3.591178 -0.289081 0.194475 0.000000 0.000000 0.000000 -1.813807 1.831561 1.489051 -71.841044 0.044420 14.262533 -3.163030 -21.213042 0.002980 2.866055 -2.505880 -0.064517 -0.074818 0.025106 0.000000 0.000000 0.000000 0.000000 0.000000 0.000000 0.000000 16.889032 -6.582547 1.114758 68.095436 -2.682127 2.750364 3.587026 23.244323 0.022543 -0.117279 12.571134 -0.022896 0.097965 -0.077507 0.000000 0.000000 0.000000 0.000000 0.000000 0.000000 0.000000 
-0.586967 17.284759 1.072632 -6.925643 -83.853715 15.321743 -0.050997 -2.490863 -2.038928 -0.778493 -2.608025 -3.395578 -6.877371 -2.699873 -0.050028 11.107475 -8.723386 -7.031403 -3.614832 -0.289634 0.185831 0.000000 0.000000 0.000000 -1.922991 1.670274 1.552863 -71.722214 -0.257724 14.585360 -3.141252 -21.566407 0.002903 2.954012 -2.596304 -0.068907 -0.074662 0.028387 0.000000 0.000000 0.000000 0.000000 0.000000 0.000000 0.000000 16.953958 -6.465034 1.181639 68.090840 -2.786348 2.206125 3.610473 22.689479 0.022075 -0.163249 12.364006 -0.027523 0.097900 -0.076443 0.000000 0.000000 0.000000 0.000000 0.000000 0.000000 0.000000 
-0.539571 17.284642 1.099804 -10.274860 -83.691911 18.301670 0.375137 -2.558361 -1.418807 -0.706831 -2.683958 -3.301514 -6.923333 -2.770910 -0.132041 11.103382 -8.524089 -7.020375 -3.641764 -0.290552 0.181047 0.000000 0.000000 0.000000 -2.045669 1.474687 1.621170 -71.584646 -0.532807 14.895648 -3.117929 -21.928753 0.002845 3.054572 -2.719222 -0.074598 -0.074405 0.031677 0.000000 0.000000 0.000000 0.000000 0.000000 0.000000 0.000000 17.010518 -6.323807 1.251290 68.115733 -2.875887 1.609821 3.634382 22.088900 0.021643 -0.223651 12.191742 -0.033649 0.097815 -0.075618 0.000000 0.000000 0.000000 0.000000 0.000000 0.000000 0.000000 
-0.491669 17.285817 1.126578 -13.808574 -83.515512 21.446783 0.844831 -2.624765 -0.784901 -0.628320 -2.759615 -3.207393 -6.970908 -2.842031 -0.222125 11.088649 -8.304649 -6.992079 -3.671064 -0.291816 0.180773 0.000000 0.000000 0.000000 -2.177750 1.241968 1.691755 -71.438879 -0.784682 15.192875 -3.093464 -22.274958 0.002798 3.165827 -2.869281 -0.081590 -0.074054 0.034926 0.000000 0.000000 0.000000 0.000000 0.000000 0.000000 0.000000 17.055995 -6.167156 1.322168 68.165735 -2.960446 0.973656 3.659049 21.452591 0.021256 -0.290595 12.052614 -0.040374 0.097701 -0.074957 0.000000 0.000000 0.000000 0.000000 0.000000 0.000000 0.000000 
-0.443936 17.288184 1.153290 -17.423848 -83.311917 24.666397 1.353457 -2.689408 -0.154066 -0.543325 -2.834432 -3.115303 -7.018137 -2.912813 -0.315547 11.063540 -8.075559 -6.948692 -3.701446 -0.293334 0.184637 0.000000 0.000000 0.000000 -2.316428 0.981708 1.762328 -71.293990 -1.030241 15.490137 -3.068627 -22.576980 0.002754 3.284123 -3.037608 -0.089683 -0.073661 0.038109 0.000000 0.000000 0.000000 0.000000 0.000000 0.000000 0.000000 17.088112 -6.006041 1.392051 68.235431 -3.044167 0.313080 3.684942 20.789449 0.020914 -0.355475 11.940911 -0.046798 0.097560 -0.074371 -0.000000 0.000000 0.000000 0.000000 0.000000 0.000000 0.000000 
-0.397325 17.291562 1.179838 -20.941118 -83.070414 27.799192 1.886940 -2.752513 0.450559 -0.454029 -2.908501 -3.029860 -7.064336 -2.983703 -0.413841 11.030501 -7.839142 -6.885970 -3.732813 -0.295201 0.194148 0.000000 0.000000 0.000000 -2.454408 0.672164 1.831576 -71.158708 -1.243815 15.762524 -3.043645 -22.836070 0.002705 3.399636 -3.210308 -0.098077 -0.073151 0.041119 0.000000 0.000000 0.000000 0.000000 0.000000 0.000000 0.000000 17.109425 -5.843385 1.461188 68.321026 -3.149677 -0.365041 3.712123 20.117862 0.020607 -0.407521 11.845220 -0.051921 0.097364 -0.073770 -0.000000 0.000000 0.000000 0.000000 0.000000 0.000000 0.000000 
-0.352161 17.295631 1.206588 -24.312422 -82.787725 30.803877 2.447904 -2.813146 1.021694 -0.359220 -2.981232 -2.950131 -7.107601 -3.053917 -0.506954 10.989629 -7.612129 -6.815173 -3.763195 -0.297138 0.206256 0.000000 0.000000 0.000000 -2.596086 0.356464 1.897458 -71.035164 -1.478077 16.058981 -3.019946 -23.018129 0.002643 3.507709 -3.375131 -0.106372 -0.072682 0.044005 0.000000 0.000000 0.000000 0.000000 0.000000 0.000000 0.000000 17.117693 -5.694726 1.525822 68.415243 -3.262431 -1.036167 3.741195 19.442020 0.020337 -0.441783 11.757115 -0.055043 0.097156 -0.073081 -0.000000 0.000000 0.000000 0.000000 0.000000 0.000000 0.000000 
-0.308917 17.299994 1.233161 -27.406433 -82.463594 33.558294 3.022270 -2.871692 1.544689 -0.261277 -3.052669 -2.879249 -7.148271 -3.123666 -0.597124 10.944524 -7.395324 -6.734440 -3.792853 -0.299223 0.221672 0.000000 0.000000 0.000000 -2.735949 0.018586 1.959685 -70.925238 -1.708734 16.358021 -2.997840 -23.137426 0.002564 3.595910 -3.516761 -0.113569 -0.072182 0.046683 0.000000 0.000000 0.000000 0.000000 0.000000 0.000000 0.000000 17.118487 -5.559895 1.586708 68.515947 -3.399719 -1.692717 3.771828 18.779992 0.020087 -0.451087 11.664052 -0.055564 0.096908 -0.072244 -0.000000 0.000000 0.000000 0.000000 0.000000 0.000000 0.000000 
-0.267993 17.304285 1.259229 -30.155667 -82.104156 36.000749 3.599053 -2.928643 2.014721 -0.162068 -3.122838 -2.817067 -7.186571 -3.192823 -0.680285 10.899245 -7.196154 -6.650293 -3.821493 -0.301365 0.238587 0.000000 0.000000 0.000000 -2.872444 -0.321752 2.017815 -70.825905 -1.952368 16.676731 -2.978536 -23.191280 0.002468 3.656369 -3.623900 -0.119066 -0.071721 0.049150 0.000000 0.000000 0.000000 0.000000 0.000000 0.000000 0.000000 17.118490 -5.444839 1.642345 68.619471 -3.559957 -2.316366 3.803536 18.142977 0.019843 -0.433528 11.557083 -0.053282 0.096621 -0.071209 -0.000000 0.000000 0.000000 0.000000 0.000000 0.000000 0.000000 
-0.229246 17.308141 1.284831 -32.611969 -81.716894 38.177891 4.182122 -2.982920 2.437698 -0.060852 -3.190636 -2.762042 -7.222473 -3.260073 -0.753856 10.853308 -7.019492 -6.569351 -3.848670 -0.303439 0.255067 0.000000 0.000000 0.000000 -3.013185 -0.644558 2.072308 -70.731679 -2.226337 17.028876 -2.962540 -23.183142 0.002358 3.682452 -3.688009 -0.122064 -0.071337 0.051444 0.000000 0.000000 0.000000 0.000000 0.000000 0.000000 0.000000 17.117220 -5.351823 1.692342 68.723092 -3.734589 -2.896988 3.836514 17.535694 0.019604 -0.388288 11.432701 -0.048102 0.096313 -0.069982 -0.000000 0.000000 0.000000 0.000000 0.000000 0.000000 0.000000 
-0.192625 17.311202 1.309730 -34.786844 -81.310255 40.095968 4.765861 -3.034930 2.819508 0.041114 -3.255916 -2.713165 -7.256807 -3.325148 -0.818135 10.808377 -6.865908 -6.494936 -3.874812 -0.305429 0.270072 0.000000 0.000000 0.000000 -3.161045 -0.943617 2.124213 -70.635736 -2.530224 17.411183 -2.950251 -23.127529 0.002239 3.668961 -3.704976 -0.122162 -0.071025 0.053577 0.000000 0.000000 0.000000 0.000000 0.000000 0.000000 0.000000 17.119054 -5.279670 1.737126 68.825649 -3.921407 -3.426411 3.870227 16.964935 0.019359 -0.316976 11.289100 -0.040420 0.095974 -0.068569 -0.000000 0.000000 0.000000 0.000000 0.000000 0.000000 0.000000 
